<?xml version="1.0" standalone="no"?>
<!DOCTYPE svg PUBLIC "-//W3C//DTD SVG 1.1//EN" "http://www.w3.org/Graphics/SVG/1.1/DTD/svg11.dtd" >
<svg xmlns="http://www.w3.org/2000/svg" xmlns:xlink="http://www.w3.org/1999/xlink" version="1.1">
<metadata>
Created by FontForge 20201107 at Fri Dec  3 17:45:54 2021
 By Unknown
Alexander "Stan" Shimanov
</metadata>
<defs>
<font id="STSimpleSquareRegular" horiz-adv-x="800" >
  <font-face 
    font-family="ST-SimpleSquare"
    font-weight="400"
    font-stretch="normal"
    units-per-em="1000"
    panose-1="0 0 0 0 0 0 0 0 0 0"
    ascent="800"
    descent="-200"
    x-height="699.999"
    cap-height="700.073"
    bbox="-0.000976562 -161.59 1077.78 915.337"
    underline-thickness="0"
    underline-position="0"
    unicode-range="U+000A-F00E"
  />
<missing-glyph horiz-adv-x="527" 
d="M50 700h427v-700h-427v700zM78 680l185 -309l186 309h-371zM251 350l-180 300v-601zM264 329l-185 -308h370zM276 350l181 -303v605z" />
    <glyph glyph-name=".notdef" horiz-adv-x="527" 
d="M50 700h427v-700h-427v700zM78 680l185 -309l186 309h-371zM251 350l-180 300v-601zM264 329l-185 -308h370zM276 350l181 -303v605z" />
    <glyph glyph-name=".null" horiz-adv-x="0" 
 />
    <glyph glyph-name=".null" horiz-adv-x="0" 
 />
    <glyph glyph-name="controlLF" unicode="&#xa;" horiz-adv-x="0" 
 />
    <glyph glyph-name="controlCR" unicode="&#xd;" horiz-adv-x="0" 
 />
    <glyph glyph-name="space" unicode=" " horiz-adv-x="400" 
 />
    <glyph glyph-name="exclam" unicode="!" horiz-adv-x="262" 
d="M211.521 -0.00976562h-161.521v161.521h161.521v-161.521zM211.521 250.086h-161.521v449.913h161.521v-449.913z" />
    <glyph glyph-name="quotedbl" unicode="&#x22;" horiz-adv-x="492" 
d="M50.0059 461.214v323.044h161.521v-323.044h-161.521zM280.894 784.258h161.521v-323.044h-161.521v323.044z" />
    <glyph glyph-name="numbersign" unicode="#" horiz-adv-x="1070" 
d="M1049.77 784.258l-141.773 -234.771h140.387l-90.2598 -149.479h-140.387l-59.3096 -98.208h140.387l-91.3135 -151.256h-140.387l-142.193 -235.494h-189.642l142.193 235.494h-125.635l-142.193 -235.494h-189.642l142.193 235.494h-142.193v1.29492l90.5303 149.961
h143.007l59.2803 98.208h-142.977l90.2598 149.479h142.977l141.742 234.771h189.672l-141.772 -234.771h125.635l141.772 234.771h189.642zM568.782 301.799l59.2803 98.208h-125.635l-59.2803 -98.208h125.635z" />
    <glyph glyph-name="dollar" unicode="$" 
d="M481.021 430.756h268.973v-430.766h-268.973v-161.521h-161.521v161.521h-269.484v161.521h269.484v107.722h-269.484v430.766h269.484v161.521h161.521v-161.521h268.973v-161.521h-268.973v-107.722zM211.537 430.756h107.962v107.722h-107.962v-107.722z
M481.021 161.513h107.45v107.722h-107.45v-107.722z" />
    <glyph glyph-name="quotesingle" unicode="'" horiz-adv-x="262" 
d="M50 784.268h161.522v-71.2021l-80.7461 -161.521h-80.7764v232.724z" />
    <glyph glyph-name="parenleft" unicode="(" horiz-adv-x="436" 
d="M185.69 861.551l199.848 -0.000976562c-104.47 -128.014 -169.951 -309.918 -169.951 -511.542s65.4814 -383.528 169.951 -511.571h-199.848c-85.2021 143.519 -135.691 320.365 -135.691 511.572s50.4893 368.054 135.691 511.542z" />
    <glyph glyph-name="parenright" unicode=")" horiz-adv-x="436" 
d="M249.878 861.551c85.2021 -143.488 135.691 -320.304 135.691 -511.541s-50.4893 -368.084 -135.691 -511.572h-199.878c104.5 128.043 169.981 309.947 169.981 511.571s-65.4814 383.528 -169.981 511.542h199.878z" />
    <glyph glyph-name="plus" unicode="+" horiz-adv-x="610" 
d="M560.156 430.605v-161.521h-174.317v-174.317h-161.521v174.317h-174.317v161.521h174.317v174.317h161.521v-174.317h174.317z" />
    <glyph glyph-name="comma" unicode="," horiz-adv-x="262" 
d="M211.521 -0.0390625l-80.7451 -161.522h-80.7764v323.074h161.521v-161.552z" />
    <glyph glyph-name="hyphen" unicode="-" horiz-adv-x="550" 
d="M499.913 269.084h-449.913v161.521h449.913v-161.521z" />
    <glyph glyph-name="period" unicode="." horiz-adv-x="262" 
d="M211.521 -0.00976562h-161.521v161.521h161.521v-161.521z" />
    <glyph glyph-name="slash" unicode="/" horiz-adv-x="814" 
d="M574.818 784.268h189.672l-524.818 -869.208h-189.672z" />
    <glyph glyph-name="zero" unicode="0" 
d="M50 700.062h700.009v-700.009h-700.009v700.009zM211.522 161.575h376.965v376.965h-376.965v-376.965z" />
    <glyph glyph-name="one" unicode="1" 
d="M480.766 161.514h269.243v-161.521h-700.009v161.521h269.243v376.965h-269.243v161.521h430.766v-538.486z" />
    <glyph glyph-name="two" unicode="2" 
d="M50.0146 700h699.979v-430.766h-538.457v-107.722h538.457v-161.521h-699.979v430.766h538.457v107.722h-538.457v161.521z" />
    <glyph glyph-name="three" unicode="3" 
d="M749.979 700v-269.243l-66.8066 -80.7461l66.8066 -80.5957v-269.424h-699.979v161.582h538.366v70.54l-33.418 37.3018h-504.948v161.643h504.256l34.1104 39.1387v68.2217h-538.366v161.582h699.979z" />
    <glyph glyph-name="four" unicode="4" 
d="M588.486 700h161.521v-700.009h-161.521v269.243h-538.486v430.766h161.521v-269.243h376.965v269.243z" />
    <glyph glyph-name="five" unicode="5" 
d="M750.009 430.757v-430.766h-700.009v161.521h538.486v107.722h-538.486v430.766h700.009v-161.521h-538.486v-107.722h538.486z" />
    <glyph glyph-name="six" unicode="6" 
d="M750.009 538.479h-538.486v-107.722h538.486v-430.766h-700.009v700.009h700.009v-161.521zM588.487 269.235h-376.965v-107.722h376.965v107.722z" />
    <glyph glyph-name="seven" unicode="7" 
d="M50 700h700.009v-161.521l-327.62 -538.486h-189.642l327.59 538.486h-510.337v161.521z" />
    <glyph glyph-name="eight" unicode="8" 
d="M50 700h700.009v-269.243l-66.8369 -80.7461l66.8369 -80.5654v-269.424h-700.009v269.424l66.8369 80.5654l-66.8369 80.7461v269.243zM211.612 161.573h376.753v70.54l-33.418 37.3018h-309.917l-33.418 -37.3018v-70.54zM588.365 470.196l0.000976562 68.2217
h-376.754v-68.2217l34.1104 -39.1387h308.532z" />
    <glyph glyph-name="nine" unicode="9" 
d="M50 700h700.009v-700.009h-700.009v161.521h538.486v107.722h-538.486v430.766zM588.487 430.757v107.722h-376.965v-107.722h376.965z" />
    <glyph glyph-name="colon" unicode=":" horiz-adv-x="262" 
d="M211.521 60.2041h-161.521v161.521h161.521v-161.521zM211.521 478.265h-161.521v161.521h161.521v-161.521z" />
    <glyph glyph-name="semicolon" unicode=";" horiz-adv-x="262" 
d="M130.776 -161.561l-80.7754 -0.000976562v323.074h161.521v-161.552zM50.0312 699.999h161.521v-161.521h-161.521v161.521z" />
    <glyph glyph-name="less" unicode="&#x3c;" horiz-adv-x="552" 
d="M502.051 784.268l-262.409 -434.619l262.409 -434.589h-189.642l-167.604 277.553l-94.8057 157.036l94.8057 157.066l167.604 277.553h189.642z" />
    <glyph glyph-name="equal" unicode="=" horiz-adv-x="550" 
d="M499.913 141.947h-449.913v161.521h449.913v-161.521zM499.913 400.503h-449.913v161.521h449.913v-161.521z" />
    <glyph glyph-name="greater" unicode="&#x3e;" horiz-adv-x="552" 
d="M407.245 506.715l94.8057 -157.066l-94.8057 -157.036l-167.604 -277.553h-189.642l262.409 434.589l-262.409 434.619h189.642z" />
    <glyph glyph-name="question" unicode="?" 
d="M318.852 -0.00976562v161.521h161.521v-161.521h-161.521zM50 699.998h700.009v-364.982l-430.766 -173.504v161.521l269.243 108.444v106.999h-538.486v161.521z" />
    <glyph glyph-name="A" unicode="A" 
d="M50 700h700.008v-700.009h-161.521v269.243h-376.965v-269.243h-161.521v700.009zM588.486 430.757v107.722h-376.965v-107.722h376.965z" />
    <glyph glyph-name="A" unicode="&#xc5;" 
d="M50 700h700.008v-700.009h-161.521v269.243h-376.965v-269.243h-161.521v700.009zM588.486 430.757v107.722h-376.965v-107.722h376.965z" />
    <glyph glyph-name="A" unicode="&#xc3;" 
d="M50 700h700.008v-700.009h-161.521v269.243h-376.965v-269.243h-161.521v700.009zM588.486 430.757v107.722h-376.965v-107.722h376.965z" />
    <glyph glyph-name="A" unicode="&#xc2;" 
d="M50 700h700.008v-700.009h-161.521v269.243h-376.965v-269.243h-161.521v700.009zM588.486 430.757v107.722h-376.965v-107.722h376.965z" />
    <glyph glyph-name="A" unicode="&#xc1;" 
d="M50 700h700.008v-700.009h-161.521v269.243h-376.965v-269.243h-161.521v700.009zM588.486 430.757v107.722h-376.965v-107.722h376.965z" />
    <glyph glyph-name="A" unicode="&#xc0;" 
d="M50 700h700.008v-700.009h-161.521v269.243h-376.965v-269.243h-161.521v700.009zM588.486 430.757v107.722h-376.965v-107.722h376.965z" />
    <glyph glyph-name="B" unicode="B" 
d="M750.009 700.062v-269.243l-66.8369 -80.7461l66.8369 -80.5654v-269.424h-700.009v699.979h700.009zM588.396 538.479h-376.874v-107.391h342.764l34.1104 39.1387v68.252zM588.367 161.635l-0.000976562 70.54l-33.418 37.3018h-343.426v-107.842h376.845z" />
    <glyph glyph-name="C" unicode="C" 
d="M749.994 538.479l-538.457 -0.000976562v-376.965h538.457v-161.521h-699.979v700.009h699.979v-161.521z" />
    <glyph glyph-name="C" unicode="&#xc7;" 
d="M749.994 538.479l-538.457 -0.000976562v-376.965h538.457v-161.521h-699.979v700.009h699.979v-161.521z" />
    <glyph glyph-name="D" unicode="D" 
d="M593.003 700l157.006 -217.46v-482.549h-700.009v700.009h543.003zM211.522 161.514h376.965v253.377l-89.2061 123.588h-287.759v-376.965z" />
    <glyph glyph-name="E" unicode="E" 
d="M750.009 538.418h-538.486v-107.36h538.486v-161.643h-538.486v-107.842h538.486v-161.582h-700.009v700.009h700.009v-161.582z" />
    <glyph glyph-name="E" unicode="&#xcb;" 
d="M750.009 538.418h-538.486v-107.36h538.486v-161.643h-538.486v-107.842h538.486v-161.582h-700.009v700.009h700.009v-161.582z" />
    <glyph glyph-name="E" unicode="&#xca;" 
d="M750.009 538.418h-538.486v-107.36h538.486v-161.643h-538.486v-107.842h538.486v-161.582h-700.009v700.009h700.009v-161.582z" />
    <glyph glyph-name="E" unicode="&#xc9;" 
d="M750.009 538.418h-538.486v-107.36h538.486v-161.643h-538.486v-107.842h538.486v-161.582h-700.009v700.009h700.009v-161.582z" />
    <glyph glyph-name="E" unicode="&#xc8;" 
d="M750.009 538.418h-538.486v-107.36h538.486v-161.643h-538.486v-107.842h538.486v-161.582h-700.009v700.009h700.009v-161.582z" />
    <glyph glyph-name="F" unicode="F" 
d="M750.009 538.479l-538.487 -0.000976562v-107.722h538.486v-161.521h-538.486v-269.243h-161.521v700.009h700.009v-161.521z" />
    <glyph glyph-name="G" unicode="G" 
d="M399.989 430.757h350.019v-430.766h-700.009v700.009h700.009v-161.521h-538.486v-376.965h376.965v107.722h-188.497v161.521z" />
    <glyph glyph-name="H" unicode="H" 
d="M588.472 700h161.521v-700.009h-161.521v269.243h-376.935v-269.243h-161.521v700.009h161.521v-269.243h376.935v269.243z" />
    <glyph glyph-name="I" unicode="I" 
d="M750.009 538.479h-269.243v-376.965h269.243v-161.521h-700.009v161.521h269.243v376.965h-269.243v161.521h700.009v-161.521z" />
    <glyph glyph-name="I" unicode="&#xcf;" 
d="M750.009 538.479h-269.243v-376.965h269.243v-161.521h-700.009v161.521h269.243v376.965h-269.243v161.521h700.009v-161.521z" />
    <glyph glyph-name="I" unicode="&#xce;" 
d="M750.009 538.479h-269.243v-376.965h269.243v-161.521h-700.009v161.521h269.243v376.965h-269.243v161.521h700.009v-161.521z" />
    <glyph glyph-name="I" unicode="&#xcd;" 
d="M750.009 538.479h-269.243v-376.965h269.243v-161.521h-700.009v161.521h269.243v376.965h-269.243v161.521h700.009v-161.521z" />
    <glyph glyph-name="I" unicode="&#xcc;" 
d="M750.009 538.479h-269.243v-376.965h269.243v-161.521h-700.009v161.521h269.243v376.965h-269.243v161.521h700.009v-161.521z" />
    <glyph glyph-name="J" unicode="J" 
d="M750.009 700l-0.000976562 -482.548l-156.976 -217.46h-543.033v161.521h449.281l89.2061 123.588v253.377h-538.486v161.521h700.009z" />
    <glyph glyph-name="K" unicode="K" 
d="M750.009 700v-430.585h-194.699l194.488 -269.424h-194.278l-194.488 269.424h-149.479v-269.424h-161.552v700.009h161.552v-268.942h376.875v268.942h161.582z" />
    <glyph glyph-name="L" unicode="L" 
d="M211.537 161.514l538.457 -0.000976562v-161.521h-699.979v700.009h161.521v-538.486z" />
    <glyph glyph-name="M" unicode="M" 
d="M50.0146 700h699.979v-700.009h-161.492v538.486h-107.45v-538.486h-161.521v538.486h-107.902v-538.486h-161.612v700.009z" />
    <glyph glyph-name="N" unicode="N" 
d="M588.486 700h161.522v-700.009h-194.64l-343.848 476.347v-476.347h-161.521v700.009h194.338l344.148 -476.769v476.769z" />
    <glyph glyph-name="O" unicode="O" 
d="M50 700h700.009v-700.009h-700.009v700.009zM588.487 161.514v376.965h-376.965v-376.965h376.965z" />
    <glyph glyph-name="O" unicode="&#xd8;" 
d="M50 700h700.009v-700.009h-700.009v700.009zM588.487 161.514v376.965h-376.965v-376.965h376.965z" />
    <glyph glyph-name="O" unicode="&#xd5;" 
d="M50 700h700.009v-700.009h-700.009v700.009zM588.487 161.514v376.965h-376.965v-376.965h376.965z" />
    <glyph glyph-name="O" unicode="&#xd4;" 
d="M50 700h700.009v-700.009h-700.009v700.009zM588.487 161.514v376.965h-376.965v-376.965h376.965z" />
    <glyph glyph-name="O" unicode="&#xd3;" 
d="M50 700h700.009v-700.009h-700.009v700.009zM588.487 161.514v376.965h-376.965v-376.965h376.965z" />
    <glyph glyph-name="O" unicode="&#xd2;" 
d="M50 700h700.009v-700.009h-700.009v700.009zM588.487 161.514v376.965h-376.965v-376.965h376.965z" />
    <glyph glyph-name="P" unicode="P" 
d="M50 700h699.979v-430.585h-538.457v-269.424h-161.521v700.009zM588.396 431.058v107.36h-376.904v-107.36h376.904z" />
    <glyph glyph-name="Q" unicode="Q" 
d="M50 700h700.008v-700.009h-269.243v-161.521h-161.521v161.521h-269.243v700.009zM211.521 161.514h376.965v376.965h-376.965v-376.965z" />
    <glyph glyph-name="R" unicode="R" 
d="M749.979 700v-430.585h-194.699l194.488 -269.424h-194.248l-194.488 269.424h-149.51v-269.424h-161.521v700.009h699.979zM211.521 431.058h376.904v107.36h-376.904v-107.36z" />
    <glyph glyph-name="S" unicode="S" 
d="M750.009 430.757v-430.766h-700.009v161.521h538.486v107.722h-538.486v430.766h700.009v-161.521h-538.486v-107.722h538.486z" />
    <glyph glyph-name="T" unicode="T" 
d="M750.009 700l-0.000976562 -161.521h-269.243v-538.486h-161.521v538.486h-269.243v161.521h700.009z" />
    <glyph glyph-name="U" unicode="U" 
d="M588.486 700h161.522v-700.009h-700.009v700.009h161.521v-538.486h376.965v538.486z" />
    <glyph glyph-name="U" unicode="&#xdb;" 
d="M588.486 700h161.522v-700.009h-700.009v700.009h161.521v-538.486h376.965v538.486z" />
    <glyph glyph-name="U" unicode="&#xda;" 
d="M588.486 700h161.522v-700.009h-700.009v700.009h161.521v-538.486h376.965v538.486z" />
    <glyph glyph-name="U" unicode="&#xd9;" 
d="M588.486 700h161.522v-700.009h-700.009v700.009h161.521v-538.486h376.965v538.486z" />
    <glyph glyph-name="V" unicode="V" 
d="M588.486 700h161.492v-482.549l-156.976 -217.46h-386.027l-156.976 217.46v482.549h161.521v-414.899l89.2061 -123.588h198.553l89.2061 123.588v414.899z" />
    <glyph glyph-name="W" unicode="W" 
d="M588.366 700h161.612v-700.009h-699.979v700.009h161.492v-538.486h107.45v538.486h161.521v-538.486h107.902v538.486z" />
    <glyph glyph-name="X" unicode="X" 
d="M749.558 700l-252.654 -349.989l252.654 -350.02h-194.278l-155.501 215.443l-155.53 -215.443h-194.248l252.625 350.02l-252.625 349.989h194.248l155.53 -215.443l155.501 215.443h194.278z" />
    <glyph glyph-name="Y" unicode="Y" 
d="M588.457 700h161.521v-321.026l-156.976 -217.46h-94.9258v-161.521h-161.521v161.521h-129.579l-156.976 217.46v321.026h161.521v-253.377l89.2061 -123.588h198.523l89.2061 123.588v253.377z" />
    <glyph glyph-name="Y" unicode="&#x178;" 
d="M588.457 700h161.521v-321.026l-156.976 -217.46h-94.9258v-161.521h-161.521v161.521h-129.579l-156.976 217.46v321.026h161.521v-253.377l89.2061 -123.588h198.523l89.2061 123.588v253.377z" />
    <glyph glyph-name="Z" unicode="Z" 
d="M50.0146 700.011l699.979 0.000976562v-194.64l-116.513 -84.1182h0.241211v-142.494h-197.649l-162.396 -117.235h476.316v-161.521h-699.979v194.338l116.934 84.4189h-0.331055v142.494h197.74l162.396 117.235h-476.738v161.521z" />
    <glyph glyph-name="bracketleft" unicode="[" horiz-adv-x="423" 
d="M373.345 699.729h-161.823v-699.467h161.823v-161.823h-323.345v1023.11h323.345v-161.823z" />
    <glyph glyph-name="backslash" unicode="\" horiz-adv-x="814" 
d="M239.672 784.268l524.818 -869.208h-189.672l-524.818 869.208h189.672z" />
    <glyph glyph-name="bracketright" unicode="]" horiz-adv-x="423" 
d="M211.823 699.729h-161.823v161.823h323.345v-1023.11h-323.345v161.823h161.823v699.467z" />
    <glyph glyph-name="underscore" unicode="_" 
d="M750.009 161.521v-161.521h-700.009v161.521h700.009z" />
    <glyph glyph-name="a" unicode="a" 
d="M50 700h700.008v-700.009h-161.521v269.243h-376.965v-269.243h-161.521v700.009zM588.486 430.757v107.722h-376.965v-107.722h376.965z" />
    <glyph glyph-name="a" unicode="&#xe3;" 
d="M50 700h700.008v-700.009h-161.521v269.243h-376.965v-269.243h-161.521v700.009zM588.486 430.757v107.722h-376.965v-107.722h376.965z" />
    <glyph glyph-name="a" unicode="&#xe2;" 
d="M50 700h700.008v-700.009h-161.521v269.243h-376.965v-269.243h-161.521v700.009zM588.486 430.757v107.722h-376.965v-107.722h376.965z" />
    <glyph glyph-name="a" unicode="&#xe1;" 
d="M50 700h700.008v-700.009h-161.521v269.243h-376.965v-269.243h-161.521v700.009zM588.486 430.757v107.722h-376.965v-107.722h376.965z" />
    <glyph glyph-name="a" unicode="&#xe0;" 
d="M50 700h700.008v-700.009h-161.521v269.243h-376.965v-269.243h-161.521v700.009zM588.486 430.757v107.722h-376.965v-107.722h376.965z" />
    <glyph glyph-name="b" unicode="b" 
d="M750.009 700.062v-269.243l-66.8369 -80.7461l66.8369 -80.5654v-269.424h-700.009v699.979h700.009zM588.396 538.479h-376.874v-107.391h342.764l34.1104 39.1387v68.252zM588.367 161.635l-0.000976562 70.54l-33.418 37.3018h-343.426v-107.842h376.845z" />
    <glyph glyph-name="c" unicode="c" 
d="M749.994 538.479l-538.457 -0.000976562v-376.965h538.457v-161.521h-699.979v700.009h699.979v-161.521z" />
    <glyph glyph-name="c" unicode="&#xe7;" 
d="M749.994 538.479l-538.457 -0.000976562v-376.965h538.457v-161.521h-699.979v700.009h699.979v-161.521z" />
    <glyph glyph-name="d" unicode="d" 
d="M593.003 700l157.006 -217.46v-482.549h-700.009v700.009h543.003zM211.522 161.514h376.965v253.377l-89.2061 123.588h-287.759v-376.965z" />
    <glyph glyph-name="e" unicode="e" 
d="M750.009 538.418h-538.486v-107.36h538.486v-161.643h-538.486v-107.842h538.486v-161.582h-700.009v700.009h700.009v-161.582z" />
    <glyph glyph-name="e" unicode="&#xea;" 
d="M750.009 538.418h-538.486v-107.36h538.486v-161.643h-538.486v-107.842h538.486v-161.582h-700.009v700.009h700.009v-161.582z" />
    <glyph glyph-name="e" unicode="&#xe9;" 
d="M750.009 538.418h-538.486v-107.36h538.486v-161.643h-538.486v-107.842h538.486v-161.582h-700.009v700.009h700.009v-161.582z" />
    <glyph glyph-name="e" unicode="&#xe8;" 
d="M750.009 538.418h-538.486v-107.36h538.486v-161.643h-538.486v-107.842h538.486v-161.582h-700.009v700.009h700.009v-161.582z" />
    <glyph glyph-name="f" unicode="f" 
d="M750.009 538.479l-538.487 -0.000976562v-107.722h538.486v-161.521h-538.486v-269.243h-161.521v700.009h700.009v-161.521z" />
    <glyph glyph-name="g" unicode="g" 
d="M399.989 430.757h350.019v-430.766h-700.009v700.009h700.009v-161.521h-538.486v-376.965h376.965v107.722h-188.497v161.521z" />
    <glyph glyph-name="h" unicode="h" 
d="M588.472 700h161.521v-700.009h-161.521v269.243h-376.935v-269.243h-161.521v700.009h161.521v-269.243h376.935v269.243z" />
    <glyph glyph-name="i" unicode="i" 
d="M750.009 538.479h-269.243v-376.965h269.243v-161.521h-700.009v161.521h269.243v376.965h-269.243v161.521h700.009v-161.521z" />
    <glyph glyph-name="i" unicode="&#xee;" 
d="M750.009 538.479h-269.243v-376.965h269.243v-161.521h-700.009v161.521h269.243v376.965h-269.243v161.521h700.009v-161.521z" />
    <glyph glyph-name="i" unicode="&#xed;" 
d="M750.009 538.479h-269.243v-376.965h269.243v-161.521h-700.009v161.521h269.243v376.965h-269.243v161.521h700.009v-161.521z" />
    <glyph glyph-name="i" unicode="&#xec;" 
d="M750.009 538.479h-269.243v-376.965h269.243v-161.521h-700.009v161.521h269.243v376.965h-269.243v161.521h700.009v-161.521z" />
    <glyph glyph-name="j" unicode="j" 
d="M750.009 700l-0.000976562 -482.548l-156.976 -217.46h-543.033v161.521h449.281l89.2061 123.588v253.377h-538.486v161.521h700.009z" />
    <glyph glyph-name="k" unicode="k" 
d="M750.009 700v-430.585h-194.699l194.488 -269.424h-194.278l-194.488 269.424h-149.479v-269.424h-161.552v700.009h161.552v-268.942h376.875v268.942h161.582z" />
    <glyph glyph-name="l" unicode="l" 
d="M211.537 161.514l538.457 -0.000976562v-161.521h-699.979v700.009h161.521v-538.486z" />
    <glyph glyph-name="m" unicode="m" 
d="M50.0146 700h699.979v-700.009h-161.492v538.486h-107.45v-538.486h-161.521v538.486h-107.902v-538.486h-161.612v700.009z" />
    <glyph glyph-name="n" unicode="n" 
d="M588.486 700h161.522v-700.009h-194.64l-343.848 476.347v-476.347h-161.521v700.009h194.338l344.148 -476.769v476.769z" />
    <glyph glyph-name="o" unicode="o" 
d="M50 700h700.009v-700.009h-700.009v700.009zM588.487 161.514v376.965h-376.965v-376.965h376.965z" />
    <glyph glyph-name="o" unicode="&#xf5;" 
d="M50 700h700.009v-700.009h-700.009v700.009zM588.487 161.514v376.965h-376.965v-376.965h376.965z" />
    <glyph glyph-name="o" unicode="&#xf4;" 
d="M50 700h700.009v-700.009h-700.009v700.009zM588.487 161.514v376.965h-376.965v-376.965h376.965z" />
    <glyph glyph-name="o" unicode="&#xf3;" 
d="M50 700h700.009v-700.009h-700.009v700.009zM588.487 161.514v376.965h-376.965v-376.965h376.965z" />
    <glyph glyph-name="o" unicode="&#xf2;" 
d="M50 700h700.009v-700.009h-700.009v700.009zM588.487 161.514v376.965h-376.965v-376.965h376.965z" />
    <glyph glyph-name="p" unicode="p" 
d="M50 700h699.979v-430.585h-538.457v-269.424h-161.521v700.009zM588.396 431.058v107.36h-376.904v-107.36h376.904z" />
    <glyph glyph-name="q" unicode="q" 
d="M50 700h700.008v-700.009h-269.243v-161.521h-161.521v161.521h-269.243v700.009zM211.521 161.514h376.965v376.965h-376.965v-376.965z" />
    <glyph glyph-name="r" unicode="r" 
d="M749.979 700v-430.585h-194.699l194.488 -269.424h-194.248l-194.488 269.424h-149.51v-269.424h-161.521v700.009h699.979zM211.521 431.058h376.904v107.36h-376.904v-107.36z" />
    <glyph glyph-name="s" unicode="s" 
d="M750.009 430.757v-430.766h-700.009v161.521h538.486v107.722h-538.486v430.766h700.009v-161.521h-538.486v-107.722h538.486z" />
    <glyph glyph-name="t" unicode="t" 
d="M750.009 700l-0.000976562 -161.521h-269.243v-538.486h-161.521v538.486h-269.243v161.521h700.009z" />
    <glyph glyph-name="u" unicode="u" 
d="M588.486 700h161.522v-700.009h-700.009v700.009h161.521v-538.486h376.965v538.486z" />
    <glyph glyph-name="u" unicode="&#xfb;" 
d="M588.486 700h161.522v-700.009h-700.009v700.009h161.521v-538.486h376.965v538.486z" />
    <glyph glyph-name="u" unicode="&#xfa;" 
d="M588.486 700h161.522v-700.009h-700.009v700.009h161.521v-538.486h376.965v538.486z" />
    <glyph glyph-name="u" unicode="&#xf9;" 
d="M588.486 700h161.522v-700.009h-700.009v700.009h161.521v-538.486h376.965v538.486z" />
    <glyph glyph-name="v" unicode="v" 
d="M588.486 700h161.492v-482.549l-156.976 -217.46h-386.027l-156.976 217.46v482.549h161.521v-414.899l89.2061 -123.588h198.553l89.2061 123.588v414.899z" />
    <glyph glyph-name="w" unicode="w" 
d="M588.366 700h161.612v-700.009h-699.979v700.009h161.492v-538.486h107.45v538.486h161.521v-538.486h107.902v538.486z" />
    <glyph glyph-name="x" unicode="x" 
d="M749.558 700l-252.654 -349.989l252.654 -350.02h-194.278l-155.501 215.443l-155.53 -215.443h-194.248l252.625 350.02l-252.625 349.989h194.248l155.53 -215.443l155.501 215.443h194.278z" />
    <glyph glyph-name="y" unicode="y" 
d="M588.486 699.999h161.521v-430.766h-251.932v-269.243h-161.521v269.243h-286.555v430.766h161.521v-269.243h376.965v269.243z" />
    <glyph glyph-name="y" unicode="&#xff;" 
d="M588.486 699.999h161.521v-430.766h-251.932v-269.243h-161.521v269.243h-286.555v430.766h161.521v-269.243h376.965v269.243z" />
    <glyph glyph-name="z" unicode="z" 
d="M50 699.999l700.009 0.000976562v-194.64l-476.347 -343.848h476.347v-161.521h-700.009v194.338l476.769 344.148h-476.769v161.521z" />
    <glyph glyph-name="verticalbar" unicode="|" horiz-adv-x="262" 
d="M211.521 -161.562h-161.521v1023.11h161.521v-1023.11z" />
    <glyph glyph-name="nonbreakingspace" unicode="&#xa0;" horiz-adv-x="400" 
 />
    <glyph glyph-name="exclamdown" unicode="&#xa1;" horiz-adv-x="262" 
d="M211.521 538.478h-161.521v161.521h161.521v-161.521zM211.521 0.0205078h-161.521v449.913h161.521v-449.913z" />
    <glyph glyph-name="cent" unicode="&#xa2;" 
d="M750.009 538.478l-247.355 -0.000976562v-376.965h247.355v-161.521h-247.355v-161.521h-161.521v161.521h-291.131v700.009h291.131v161.521h161.521v-161.521h247.355v-161.521zM341.161 161.512v376.965h-129.609v-376.965h129.609z" />
    <glyph glyph-name="sterling" unicode="&#xa3;" horiz-adv-x="966" 
d="M377.861 161.513l538.486 -0.000976562v-161.521h-700.009v269.243h-166.339v161.521h166.339v0.421875l194.64 268.822h505.369v-161.521h-411.798l-77.8555 -107.722h323.314v-161.521h-372.147v-107.722z" />
    <glyph glyph-name="yen" unicode="&#xa5;" 
d="M588.486 700h161.522v-170.494l-71.292 -98.75h71.292v-131.415h-251.902v-45.6113h251.902v-131.415h-251.902v-122.323h-161.521v122.323h-286.585v131.415h286.585v45.6113h-286.585v131.415h71.292l-71.292 98.75v170.494h161.521v-102.844l120.125 -166.399h136.744
l120.096 166.399v102.844z" />
    <glyph glyph-name="guillemotleft" unicode="&#xab;" horiz-adv-x="790" 
d="M451.171 699.999l-211.529 -350.352l211.077 -349.567h-189.642l-116.271 192.532l-94.8057 157.036l94.8057 157.066l116.724 193.284h189.642zM739.531 699.998l-211.529 -350.352l211.077 -349.567h-189.642l-116.271 192.532l-94.8057 157.036l94.8057 157.066
l116.724 193.284h189.642z" />
    <glyph glyph-name="softhyphen" unicode="&#xad;" horiz-adv-x="0" 
 />
    <glyph glyph-name="guillemotright" unicode="&#xbb;" horiz-adv-x="790" 
d="M451.2 349.648l-94.8359 -157.035l-116.241 -192.532h-189.642l211.077 349.567l-211.56 350.351h189.672l116.693 -193.284zM644.726 506.716l94.8359 -157.065l-94.8359 -157.036l-116.241 -192.532h-189.642l211.077 349.567l-211.56 350.351h189.672z" />
    <glyph glyph-name="questiondown" unicode="&#xbf;" 
d="M481.142 699.999v-161.521h-161.521v161.521h161.521zM211.537 161.513h538.456v-161.521h-699.979v364.982l430.766 173.504v-161.521l-269.243 -108.444v-106.999z" />
    <glyph glyph-name="Adieresis" unicode="&#xc4;" 
d="M50 700.074h700.008v-700.009h-161.521v269.243h-376.965v-269.243h-161.521v700.009zM588.486 430.831v107.722h-376.965v-107.722h376.965zM341.552 772.843h-142.494v142.494h142.494v-142.494zM600.921 772.843h-142.494v142.494h142.494v-142.494z" />
    <glyph glyph-name="Ntilde" unicode="&#xd1;" 
d="M588.457 700.011h161.522v-700.009h-194.64l-343.817 476.347v-476.347h-161.521v700.009h194.308l344.148 -476.769v476.769zM542.515 772.778h-285.02v142.494h285.02v-142.494z" />
    <glyph glyph-name="Odieresis" unicode="&#xd6;" 
d="M50 700.375h700.009v-700.009h-700.009v700.009zM211.522 161.889h376.965v376.965h-376.965v-376.965zM341.583 772.842h-142.494v142.494h142.494v-142.494zM600.922 772.842h-142.494v142.494h142.494v-142.494z" />
    <glyph glyph-name="multiply" unicode="&#xd7;" horiz-adv-x="575" 
d="M524.932 473.116l-123.257 -123.257l123.257 -123.257l-114.225 -114.225l-123.257 123.257l-123.227 -123.257l-114.225 114.225l123.257 123.257l-123.257 123.257l114.225 114.194l123.227 -123.257l123.257 123.257z" />
    <glyph glyph-name="Udieresis" unicode="&#xdc;" 
d="M588.486 700.375h161.522v-700.009h-700.009v700.009h161.521v-538.486h376.965v538.486zM341.583 772.842h-142.494v142.494h142.494v-142.494zM600.922 772.842h-142.494v142.494h142.494v-142.494z" />
    <glyph glyph-name="Yacute" unicode="&#xdd;" 
d="M573.343 915.337l-101.7 -215.263h-156.404l101.7 215.263h156.404zM588.486 700.074h161.522v-700.009h-700.009v161.521h538.486v107.722h-538.486v430.766h161.521v-269.243h376.965v269.243z" />
    <glyph glyph-name="germandbls" unicode="&#xdf;" 
d="M50 700.062h700.009v-269.273l-66.8369 -80.7461l66.8369 -80.5654v-269.484l-161.612 -161.582h-269.153v305.643h161.492v-144.09h67.168l40.4629 41.2158v190.996l-33.418 37.3018h-343.426l-0.391602 -269.424h-161.131v700.009zM588.366 470.258
l0.000976562 68.2217h-376.845v-107.36h342.733z" />
    <glyph glyph-name="adieresis" unicode="&#xe4;" 
d="M50 700.073h700.008v-700.009h-161.521v269.243h-376.965v-269.243h-161.521v700.009zM588.486 430.83v107.722h-376.965v-107.722h376.965zM341.552 772.842h-142.494v142.494h142.494v-142.494zM600.921 772.842h-142.494v142.494h142.494v-142.494z" />
    <glyph glyph-name="aring" unicode="&#xe5;" 
d="M471.252 772.778h-142.494v142.494h142.494v-142.494zM50.001 700.011h700.008v-700.009h-161.521v269.243h-376.965v-269.243h-161.521v700.009zM588.487 430.768v107.722h-376.965v-107.722h376.965z" />
    <glyph glyph-name="ae" unicode="&#xe6;" horiz-adv-x="1128" 
d="M1077.75 538.429h-418.062v-107.391h418.061v-161.612h-418.061v-107.842h418.061v-161.582h-579.582v269.243h-286.645v-269.243h-161.521v700.009h1027.75v-161.582zM211.521 430.768h286.645v107.722h-286.645v-107.722z" />
    <glyph glyph-name="edieresis" unicode="&#xeb;" 
d="M750.009 538.491h-538.486v-107.391h538.486v-161.612h-538.486v-107.842h538.486v-161.582h-700.009v700.009h700.009v-161.582zM341.553 772.841h-142.494v142.494h142.494v-142.494zM600.922 772.841h-142.494v142.494h142.494v-142.494z" />
    <glyph glyph-name="idieresis" unicode="&#xef;" 
d="M341.553 772.842h-142.494v142.494h142.494v-142.494zM600.922 772.842h-142.494v142.494h142.494v-142.494zM750.01 538.854h-269.243v-376.965h269.243v-161.521h-700.009v161.521h269.243v376.965h-269.243v161.521h700.009v-161.521z" />
    <glyph glyph-name="ntilde" unicode="&#xf1;" 
d="M588.457 700.011h161.522v-700.009h-194.64l-343.817 476.347v-476.347h-161.521v700.009h194.308l344.148 -476.769v476.769zM542.515 772.778h-285.02v142.494h285.02v-142.494z" />
    <glyph glyph-name="odieresis" unicode="&#xf6;" 
d="M50 700.375h700.009v-700.009h-700.009v700.009zM211.522 161.889h376.965v376.965h-376.965v-376.965zM341.553 772.842h-142.494v142.494h142.494v-142.494zM600.922 772.842h-142.494v142.494h142.494v-142.494z" />
    <glyph glyph-name="oslash" unicode="&#xf8;" horiz-adv-x="834" 
d="M784.149 712.391l-96.4316 -123.468c56.3594 -63.7656 90.8916 -147.281 90.8916 -238.896c0 -199.366 -162.185 -361.551 -361.551 -361.551c-60.0322 0 -116.542 14.9326 -166.398 40.915l-22.9111 -29.3535h-177.749l91.2227 116.813
c-53.3789 63.0127 -85.7139 144.36 -85.7139 233.205c0 199.366 162.185 361.551 361.551 361.551c57.2627 0 111.244 -13.7285 159.415 -37.5127l29.9258 38.2959h177.749zM417.06 145.242c112.93 0 204.813 91.8848 204.813 204.814
c0 41.2461 -12.3438 79.6318 -33.418 111.815l-238.354 -305.16c21.0146 -7.31543 43.4746 -11.4697 66.958 -11.4697zM417.058 554.901c-112.93 0 -204.815 -91.916 -204.815 -204.846c0 -38.3555 10.7783 -74.1221 29.2031 -104.861l234.982 300.855
c-18.7861 5.7207 -38.7168 8.85156 -59.3701 8.85156z" />
    <glyph glyph-name="udieresis" unicode="&#xfc;" 
d="M588.486 700.375h161.522v-700.009h-700.009v700.009h161.521v-538.486h376.965v538.486zM341.583 772.842h-142.494v142.494h142.494v-142.494zM600.922 772.842h-142.494v142.494h142.494v-142.494z" />
    <glyph glyph-name="yacute" unicode="&#xfd;" 
d="M573.343 915.337l-101.7 -215.263h-156.404l101.7 215.263h156.404zM588.486 700.074h161.522v-700.009h-700.009v161.521h538.486v107.722h-538.486v430.766h161.521v-269.243h376.965v269.243z" />
    <glyph glyph-name="Cacute" unicode="&#x106;" 
d="M750.009 538.489l-538.486 -0.000976562v-376.965h538.486v-161.521h-700.009v700.009h275.746l100.556 215.263h156.404l-100.556 -215.263h267.858v-161.521z" />
    <glyph glyph-name="cacute" unicode="&#x107;" 
d="M750.009 538.489l-538.486 -0.000976562v-376.965h538.486v-161.521h-700.009v700.009h275.746l100.556 215.263h156.404l-100.556 -215.263h267.858v-161.521z" />
    <glyph glyph-name="ccaron" unicode="&#x10d;" 
d="M749.994 538.489l-538.457 -0.000976562v-376.965h538.457v-161.521h-699.979v700.009h699.979v-161.521zM542.529 772.778h-285.02v142.494h285.02v-142.494z" />
    <glyph glyph-name="dmacron" unicode="&#x111;" horiz-adv-x="812" 
d="M604.751 700.011l157.006 -217.459v-482.549h-700.009v278.757h-61.749v142.494h61.749v278.757h543.003zM223.24 161.525h376.965v253.377l-89.2061 123.588h-287.759v-117.235h61.749v-142.494h-61.749v-117.235z" />
    <glyph glyph-name="dotlessi" unicode="&#x131;" 
d="M480.766 161.512h269.243v-161.521h-700.009v161.521h269.243v376.965h-269.243v161.521h430.766v-538.486z" />
    <glyph glyph-name="oe" unicode="&#x153;" horiz-adv-x="1128" 
d="M1077.75 538.429h-418.03v-107.391h418.061v-161.612h-418.061v-107.842h418.03v-161.582h-1027.75v700.009h1027.75v-161.582zM211.552 161.524h286.645v376.965h-286.645v-376.965z" />
    <glyph glyph-name="Scaron" unicode="&#x160;" 
d="M750.009 538.489h-538.486v-107.722h538.486v-430.766h-700.009v161.521h538.486v107.722h-538.486v430.766h700.009v-161.521zM542.515 772.779h-285.02v142.494h285.02v-142.494z" />
    <glyph glyph-name="scaron" unicode="&#x161;" 
d="M750.009 538.489h-538.486v-107.722h538.486v-430.766h-700.009v161.521h538.486v107.722h-538.486v430.766h700.009v-161.521zM542.515 772.779h-285.02v142.494h285.02v-142.494z" />
    <glyph glyph-name="Zcaron" unicode="&#x17d;" 
d="M542.514 772.778h-285.02v142.494h285.02v-142.494zM49.999 700.011l700.009 0.000976562v-194.64l-476.347 -343.848h476.347v-161.521h-700.009v194.338l476.769 344.148h-476.769v161.521z" />
    <glyph glyph-name="zcaron" unicode="&#x17e;" 
d="M542.514 772.778h-285.02v142.494h285.02v-142.494zM49.999 700.011l700.009 0.000976562v-194.64l-476.347 -343.848h476.347v-161.521h-700.009v194.338l476.769 344.148h-476.769v161.521z" />
    <glyph glyph-name="Iocyrillic" unicode="&#x401;" 
d="M749.994 538.491h-538.457v-107.391h538.457v-161.612h-538.457v-107.842h538.457v-161.582h-699.979v700.009h699.979v-161.582zM341.567 772.841h-142.494v142.494h142.494v-142.494zM600.937 772.841h-142.494v142.494h142.494v-142.494z" />
    <glyph glyph-name="Djecyrillic" unicode="&#x402;" 
d="M750.009 538.553h-538.486v-107.722h538.486v-430.766l-116.663 -161.521h-180.128l135.269 187.293v243.472h-376.965v-269.243h-161.521v700.009h700.009v-161.521z" />
    <glyph glyph-name="Ecyrillic" unicode="&#x404;" 
d="M750.009 538.553l-538.487 -0.000976562v-107.722h538.486v-161.521h-527.046l77.7656 -107.722h449.281v-161.521h-543.033l-156.976 217.46v482.549h700.009v-161.521z" />
    <glyph glyph-name="Yicyrillic" unicode="&#x407;" 
d="M341.553 772.842h-142.494v142.494h142.494v-142.494zM600.922 772.842h-142.494v142.494h142.494v-142.494zM750.01 538.854h-269.243v-376.965h269.243v-161.521h-700.009v161.521h269.243v376.965h-269.243v161.521h700.009v-161.521z" />
    <glyph glyph-name="Ljecyrillic" unicode="&#x409;" horiz-adv-x="1068" 
d="M629.9 430.82h387.95l0.0302734 -430.77h-549.71v538.49h-133.68l-83.54 -538.49h-230.95v161.52h94.4697l83.5498 538.49h431.88v-269.24zM629.931 161.57h226.43v107.73h-226.43v-107.73z" />
    <glyph glyph-name="Njecyrillic" unicode="&#x40a;" horiz-adv-x="1068" 
d="M629.582 430.818h387.954v-430.766h-549.476v269.243h-256.538v-269.243h-161.521v700.009h161.521v-269.243h256.538v269.243h161.521v-269.243zM629.612 161.575h226.432v107.722h-226.432v-107.722z" />
    <glyph glyph-name="Tshecyrillic" unicode="&#x40b;" 
d="M750.009 538.553h-538.487v-107.722h538.486v-430.766h-161.521v269.243h-376.965v-269.243h-161.521v700.009h700.009v-161.521z" />
    <glyph glyph-name="Kjecyrillic" unicode="&#x40c;" 
d="M750.009 700.074v-430.585h-194.699l194.488 -269.424h-194.278l-194.488 269.424h-149.479v-269.424h-161.552v700.009h161.552v-268.973h376.875v268.973h161.582zM561 915.336l-101.699 -215.263h-156.404l101.67 215.263h156.434z" />
    <glyph glyph-name="Ushortcyrillic" unicode="&#x40e;" 
d="M588.472 700.074h161.522v-700.009h-699.979v161.521h538.457v107.722h-538.457v430.766h161.521v-269.243h376.935v269.243zM542.529 772.842h-285.02v142.494h285.02v-142.494z" />
    <glyph glyph-name="Dzhecyrillic" unicode="&#x40f;" 
d="M588.486 700.074h161.521v-700.009h-269.243v-161.521h-161.521v161.521h-269.243v700.009h161.521v-538.486h376.965v538.486z" />
    <glyph glyph-name="Acyrillic" unicode="&#x410;" 
d="M50 700.073h700.008v-700.009h-161.521v269.243h-376.965v-269.243h-161.521v700.009zM588.486 430.83v107.722h-376.965v-107.722h376.965z" />
    <glyph glyph-name="Becyrillic" unicode="&#x411;" 
d="M211.521 430.83h538.486v-430.766h-700.009v700.009h700.009v-161.521h-538.486v-107.722zM211.521 161.587h376.965v107.722h-376.965v-107.722z" />
    <glyph glyph-name="Vecyrillic" unicode="&#x412;" 
d="M750.009 700.062v-269.243l-66.8369 -80.7461l66.8369 -80.5654v-269.424h-700.009v699.979h700.009zM588.396 538.479h-376.874v-107.391h342.764l34.1104 39.1387v68.252zM588.367 161.635l-0.000976562 70.54l-33.418 37.3018h-343.426v-107.842h376.845z" />
    <glyph glyph-name="Gecyrillic" unicode="&#x413;" 
d="M750.009 700.073l-0.000976562 -161.522h-538.486v-538.486h-161.521v700.009h700.009z" />
    <glyph glyph-name="Decyrillic" unicode="&#x414;" horiz-adv-x="901" 
d="M770.557 164.945h80.7441v-323.044h-161.521v158.15h-478.243v-158.15h-161.521v323.044h80.7461v317.655l157.006 217.46h482.79v-535.115zM292.281 161.573h316.752v376.965h-227.546l-89.2061 -123.588v-253.377z" />
    <glyph glyph-name="Iecyrillic" unicode="&#x415;" 
d="M750.009 538.491h-538.486v-107.391h538.486v-161.612h-538.486v-107.842h538.486v-161.582h-700.009v700.009h700.009v-161.582z" />
    <glyph glyph-name="Zhecyrillic" unicode="&#x416;" horiz-adv-x="854" 
d="M803.629 700.062v-269.243l-66.8066 -80.7461l66.8066 -80.5957v-269.424h-161.612v232.122l-33.418 37.3018h-101.008v-269.424h-161.521v269.424h-101.038l-33.418 -37.3018v-232.122h-161.612v269.424l66.8369 80.5957l-66.8369 80.7461v269.243h161.612v-229.804
l34.1104 -39.1387h100.346v268.942h161.521v-268.942h100.315l34.1104 39.1387v229.804h161.612z" />
    <glyph glyph-name="Zecyrillic" unicode="&#x417;" 
d="M750.009 700.073v-242.147c0 -39.5303 -11.3506 -75.4775 -33.9307 -107.872c22.5801 -32.4248 33.9307 -68.3721 33.9307 -107.902v-242.087h-699.979v161.582h538.366v80.5049c0 7.43652 -2.55859 13.8789 -7.61621 19.2676
c-5.38867 5.35938 -11.8311 8.06934 -19.207 8.06934h-511.571v161.612h511.571c7.37598 0 13.8184 2.5293 19.207 7.61719c5.05762 5.38867 7.61621 11.7412 7.61621 19.208v80.5654h-538.366v161.582h699.979z" />
    <glyph glyph-name="Iicyrillic" unicode="&#x418;" 
d="M555.369 700.073h194.639v-700.009h-161.521v476.738l-344.148 -476.738h-194.338v700.009h161.521v-476.347z" />
    <glyph glyph-name="Iishortcyrillic" unicode="&#x419;" 
d="M555.369 700.073h194.639v-700.009h-161.521v476.769l-344.179 -476.769h-194.308v700.009h161.521v-476.347zM471.251 772.841h-142.494v142.494h142.494v-142.494z" />
    <glyph glyph-name="Kacyrillic" unicode="&#x41a;" 
d="M750.009 700.073v-430.585h-194.699l194.488 -269.424h-194.278l-194.488 269.424h-149.479v-269.424h-161.552v700.009h161.552v-268.973h376.875v268.973h161.582z" />
    <glyph glyph-name="Elcyrillic" unicode="&#x41b;" horiz-adv-x="770" 
d="M198.02 700.07l521.96 -0.000976562v-700.01h-161.52v538.49h-223.97l-83.5703 -538.49h-230.92v161.53h94.4697z" />
    <glyph glyph-name="Emcyrillic" unicode="&#x41c;" 
d="M555.73 700.073h194.278v-700.009h-161.521v476.227l-91.3438 -126.538l-97.1543 -134.547l-97.124 134.547l-91.3438 126.538v-476.227h-161.521v700.009h194.248l155.741 -215.774z" />
    <glyph glyph-name="Encyrillic" unicode="&#x41d;" 
d="M588.486 700.073h161.521v-700.009h-161.521v269.243h-376.965v-269.243h-161.521v700.009h161.521v-269.243h376.965v269.243z" />
    <glyph glyph-name="Ocyrillic" unicode="&#x41e;" 
d="M50 700.073h700.009v-700.009h-700.009v700.009zM211.522 161.587h376.965v376.965h-376.965v-376.965z" />
    <glyph glyph-name="Pecyrillic" unicode="&#x41f;" 
d="M750.009 700.073l-0.000976562 -700.009h-161.521v538.486h-376.965v-538.486h-161.521v700.009h700.009z" />
    <glyph glyph-name="Ercyrillic" unicode="&#x420;" 
d="M50 700.073h699.979v-430.585h-538.457v-269.424h-161.521v700.009zM588.427 431.101v107.391h-376.904v-107.391h376.904z" />
    <glyph glyph-name="Escyrillic" unicode="&#x421;" 
d="M749.994 538.552l-538.457 -0.000976562v-376.965h538.457v-161.521h-699.979v700.009h699.979v-161.521z" />
    <glyph glyph-name="Tecyrillic" unicode="&#x422;" 
d="M50 700.073h699.978v-700.009h-161.521v538.457h-107.42v-538.457h-161.521v538.457h-107.902v-538.457h-161.612v700.009z" />
    <glyph glyph-name="Ucyrillic" unicode="&#x423;" 
d="M588.486 700.073h161.522v-700.009h-700.009v161.521h538.486v107.722h-538.486v430.766h161.521v-269.243h376.965v269.243z" />
    <glyph glyph-name="Efcyrillic" unicode="&#x424;" 
d="M50 700.073h700.008v-700.009h-269.243v-161.521h-161.521v161.521h-269.243v700.009zM211.521 161.587h107.722v376.965h-107.722v-376.965zM480.765 161.587h107.722v376.965h-107.722v-376.965z" />
    <glyph glyph-name="Khacyrillic" unicode="&#x425;" 
d="M749.558 700.073l-252.654 -350.02l252.654 -349.989h-194.278l-155.501 215.443l-155.53 -215.443h-194.248l252.625 349.989l-252.625 350.02h194.248l155.53 -215.443l155.501 215.443h194.278z" />
    <glyph glyph-name="Tsecyrillic" unicode="&#x426;" horiz-adv-x="831" 
d="M750.009 161.574h80.7461v-323.044h-161.521v161.521h-619.232v700.009h161.521v-538.486h376.965v538.486h161.521v-538.486z" />
    <glyph glyph-name="Checyrillic" unicode="&#x427;" 
d="M588.472 700.073h161.522v-700.009h-161.521v269.243h-538.457v430.766h161.521v-269.243h376.935v269.243z" />
    <glyph glyph-name="Shacyrillic" unicode="&#x428;" 
d="M588.366 700.073h161.613v-700.009h-699.979v700.009h161.521v-538.486h107.42v538.486h161.521v-538.486h107.902v538.486z" />
    <glyph glyph-name="Shchacyrillic" unicode="&#x429;" horiz-adv-x="831" 
d="M750.009 161.574h80.7461v-323.044h-161.521v161.521h-619.232v700.009h161.521v-538.486h107.722v538.486h161.521v-538.486h107.722v538.486h161.521v-538.486z" />
    <glyph glyph-name="Hardsigncyrillic" unicode="&#x42a;" horiz-adv-x="822" 
d="M323.044 430.816h448.166v-430.766h-609.688v538.457h-161.521v161.552h323.044v-269.243zM323.043 161.573h286.645v107.722h-286.645v-107.722z" />
    <glyph glyph-name="Softsigncyrillic" unicode="&#x42c;" 
d="M211.521 430.83h538.487v-430.766h-700.009v700.009h161.521v-269.243zM211.522 161.587h376.965v107.722h-376.965v-107.722z" />
    <glyph glyph-name="Ereversedcyrillic" unicode="&#x42d;" 
d="M750.009 700.073l-0.000976562 -482.548l-156.976 -217.46h-543.033v161.521h449.281l77.7656 107.722h-527.046v161.521h538.486v107.722h-538.486v161.521h700.009z" />
    <glyph glyph-name="IUcyrillic" unicode="&#x42e;" horiz-adv-x="981" 
d="M318.852 700.069h611.797v-700.009h-611.797v161.521h0.391602v107.722h-107.722v-269.243h-161.521v700.009h161.521v-269.243h107.722v107.722h-0.391602v161.521zM769.127 161.583v376.965h-288.361v-376.965h288.361z" />
    <glyph glyph-name="IAcyrillic" unicode="&#x42f;" 
d="M50.0146 700.073h699.979v-700.009h-161.521v269.424h-149.51l-194.488 -269.424h-194.248l194.488 269.424h-194.699v430.585zM588.501 431.101v107.391h-376.904v-107.391h376.904z" />
    <glyph glyph-name="acyrillic" unicode="&#x430;" 
d="M50 700.073h700.008v-700.009h-161.521v269.243h-376.965v-269.243h-161.521v700.009zM588.486 430.83v107.722h-376.965v-107.722h376.965z" />
    <glyph glyph-name="becyrillic" unicode="&#x431;" 
d="M749.979 538.552h-538.456v-107.722h538.486v-430.766h-700.009v700.009h699.979v-161.521zM588.457 269.309h-376.935v-107.722h376.935v107.722z" />
    <glyph glyph-name="vecyrillic" unicode="&#x432;" 
d="M749.994 700.073v-269.273l-66.8369 -80.7461l66.8369 -80.5654v-269.424h-699.979v700.009h699.979zM588.352 161.646l-0.000976562 70.54l-33.418 37.3018h-343.426v-107.842h376.845zM588.351 470.27l0.000976562 68.252h-376.845v-107.391h342.733z" />
    <glyph glyph-name="gecyrillic" unicode="&#x433;" 
d="M750.009 700.073l-0.000976562 -161.522h-538.486v-538.486h-161.521v700.009h700.009z" />
    <glyph glyph-name="decyrillic" unicode="&#x434;" horiz-adv-x="802" 
d="M720.526 700.044l-0.00195312 -535.115h80.7764v-323.044h-161.521v158.15h-478.243v-158.15h-161.521v323.044h80.7461v317.655l156.976 217.46h482.79zM242.281 161.587h316.752v376.965h-227.546l-89.2061 -123.588v-253.377z" />
    <glyph glyph-name="iecyrillic" unicode="&#x435;" 
d="M750.009 538.491h-538.486v-107.391h538.486v-161.612h-538.486v-107.842h538.486v-161.582h-700.009v700.009h700.009v-161.582z" />
    <glyph glyph-name="zhecyrillic" unicode="&#x436;" 
d="M588.427 700.073h161.552v-700.069h-161.521v268.942h-107.722v-268.942h-161.521v268.942h-107.661v-268.942h-161.552v700.069h161.521v-268.973h107.691v268.973h161.521v-268.973h107.691v268.973z" />
    <glyph glyph-name="zecyrillic" unicode="&#x437;" 
d="M749.979 700.062v-269.243l-66.8066 -80.7461l66.8066 -80.5957v-269.424h-699.979v161.582h538.366v70.54l-33.418 37.3018h-305.16v161.643h304.468l34.1104 39.1387v68.2217h-538.366v161.582h699.979z" />
    <glyph glyph-name="iicyrillic" unicode="&#x438;" 
d="M555.369 700.073h194.608v-700.009h-161.521v476.738l-344.148 -476.738h-194.308v700.009h161.521v-476.347z" />
    <glyph glyph-name="iishortcyrillic" unicode="&#x439;" 
d="M555.369 700.073h194.639v-700.009h-161.521v476.769l-344.148 -476.769h-194.338v700.009h161.521v-476.347zM471.251 772.841h-142.494v142.494h142.494v-142.494z" />
    <glyph glyph-name="kacyrillic" unicode="&#x43a;" 
d="M749.979 700.073l0.000976562 -430.585h-194.699l194.488 -269.424h-194.248l-194.488 269.424h-149.51v-269.424h-161.521v700.009h161.521v-268.973h376.904v268.973h161.552z" />
    <glyph glyph-name="elcyrillic" unicode="&#x43b;" horiz-adv-x="770" 
d="M198.02 700.07l521.99 -0.000976562v-700.01h-161.52v538.49h-224l-83.54 -538.49h-230.95v161.53h94.4697z" />
    <glyph glyph-name="emcyrillic" unicode="&#x43c;" 
d="M555.761 700.073h194.248v-700.009h-161.521v476.227l-91.3438 -126.538l-97.124 -134.547l-97.1543 134.547l-91.3438 126.538v-476.227h-161.521v700.009h194.278l155.741 -215.774z" />
    <glyph glyph-name="encyrillic" unicode="&#x43d;" 
d="M588.486 700.073h161.521v-700.009h-161.521v269.243h-376.965v-269.243h-161.521v700.009h161.521v-269.243h376.965v269.243z" />
    <glyph glyph-name="ocyrillic" unicode="&#x43e;" 
d="M50 700.073h700.009v-700.009h-700.009v700.009zM211.522 161.587h376.965v376.965h-376.965v-376.965z" />
    <glyph glyph-name="pecyrillic" unicode="&#x43f;" 
d="M749.994 700.073l-0.000976562 -700.009h-161.521v538.486h-376.935v-538.486h-161.521v700.009h699.979z" />
    <glyph glyph-name="ercyrillic" unicode="&#x440;" 
d="M50 700.073h699.979v-430.585h-538.457v-269.424h-161.521v700.009zM588.427 431.101v107.391h-376.904v-107.391h376.904z" />
    <glyph glyph-name="escyrillic" unicode="&#x441;" 
d="M750.009 538.552l-538.486 -0.000976562v-376.965h538.486v-161.521h-700.009v700.009h700.009v-161.521z" />
    <glyph glyph-name="tecyrillic" unicode="&#x442;" 
d="M750.009 699.999l-0.000976562 -161.521h-269.243v-538.486h-161.521v538.486h-269.243v161.521h700.009z" />
    <glyph glyph-name="ucyrillic" unicode="&#x443;" 
d="M588.472 700.073h161.522v-700.009h-699.979v161.521h538.457v107.722h-538.457v430.766h161.521v-269.243h376.935v269.243z" />
    <glyph glyph-name="efcyrillic" unicode="&#x444;" horiz-adv-x="890" 
d="M525.925 700.073h314.403v-700.009h-314.403v-161.521h-161.521v161.521h-314.403v700.009h314.403v161.521h161.521v-161.521zM211.552 161.587h152.882v376.965h-152.882v-376.965zM525.926 161.587h152.881v376.965h-152.881v-376.965z" />
    <glyph glyph-name="khacyrillic" unicode="&#x445;" 
d="M749.558 700.073l-252.654 -350.02l252.654 -349.989h-194.248l-155.53 215.443l-155.53 -215.443h-194.248l252.654 349.989l-252.654 350.02h194.248l155.53 -215.443l155.53 215.443h194.248z" />
    <glyph glyph-name="tsecyrillic" unicode="&#x446;" horiz-adv-x="831" 
d="M750.009 161.587h80.7461v-323.044h-161.521v161.521h-619.232v700.009h161.521v-538.486h376.965v538.486h161.521v-538.486z" />
    <glyph glyph-name="checyrillic" unicode="&#x447;" 
d="M588.486 700.073h161.521v-700.009h-161.521v269.243h-538.486v430.766h161.521v-269.243h376.965v269.243z" />
    <glyph glyph-name="shacyrillic" unicode="&#x448;" 
d="M588.366 700.073h161.644v-700.009h-700.009v700.009h161.521v-538.486h107.42v538.486h161.521v-538.486h107.902v538.486z" />
    <glyph glyph-name="shchacyrillic" unicode="&#x449;" horiz-adv-x="831" 
d="M750.009 161.587h80.7461v-323.044h-161.521v161.521h-619.232v700.009h161.521v-538.486h107.722v538.486h161.521v-538.486h107.722v538.486h161.521v-538.486z" />
    <glyph glyph-name="hardsigncyrillic" unicode="&#x44a;" horiz-adv-x="822" 
d="M323.044 430.816h448.166v-430.766h-609.688v538.457h-161.521v161.552h323.044v-269.243zM323.043 161.573h286.645v107.722h-286.645v-107.722z" />
    <glyph glyph-name="yericyrillic" unicode="&#x44b;" horiz-adv-x="926" 
d="M211.521 430.766h418.061v-430.766h-579.582v700.009h161.521v-269.243zM211.552 161.522h256.538v107.722h-256.538v-107.722zM875.673 -0.0595703h-161.521v700.069h161.521v-700.069z" />
    <glyph glyph-name="softsigncyrillic" unicode="&#x44c;" 
d="M211.521 430.766h538.487v-430.766h-700.009v700.009h161.521v-269.243zM211.552 161.522h376.965v107.722h-376.965v-107.722z" />
    <glyph glyph-name="ereversedcyrillic" unicode="&#x44d;" 
d="M750.009 700.073l-0.000976562 -482.548l-156.976 -217.46h-543.033v161.521h449.281l77.7656 107.722h-527.046v161.521h538.486v107.722h-538.486v161.521h700.009z" />
    <glyph glyph-name="iucyrillic" unicode="&#x44e;" horiz-adv-x="981" 
d="M318.852 700.009h611.797v-700.009h-611.797v161.521h0.391602v107.722h-107.722v-269.243h-161.521v700.009h161.521v-269.243h107.722v107.722h-0.391602v161.521zM769.127 161.522v376.965h-288.361v-376.965h288.361z" />
    <glyph glyph-name="iacyrillic" unicode="&#x44f;" 
d="M50 700.062h700.009v-700.009h-161.521v269.424h-149.51l-194.488 -269.424h-194.278l194.488 269.424h-194.699v430.585zM211.582 431.119h376.904v107.36h-376.904v-107.36z" />
    <glyph glyph-name="iocyrillic" unicode="&#x451;" 
d="M749.994 538.491h-538.457v-107.391h538.457v-161.612h-538.457v-107.842h538.457v-161.582h-699.979v700.009h699.979v-161.582zM341.567 772.841h-142.494v142.494h142.494v-142.494zM600.937 772.841h-142.494v142.494h142.494v-142.494z" />
    <glyph glyph-name="djecyrillic" unicode="&#x452;" 
d="M750.009 538.553h-538.486v-107.722h538.486v-430.766l-116.663 -161.521h-180.128l135.269 187.293v243.472h-376.965v-269.243h-161.521v700.009h700.009v-161.521z" />
    <glyph glyph-name="gjecyrillic" unicode="&#x453;" 
d="M750.009 700.074l-0.000976562 -161.522h-538.486v-538.486h-161.521v700.009h271.833l100.556 215.263h156.404l-100.526 -215.263h271.742z" />
    <glyph glyph-name="ecyrillic" unicode="&#x454;" 
d="M750.009 538.553l-538.487 -0.000976562v-107.722h538.486v-161.521h-527.046l77.7656 -107.722h449.281v-161.521h-543.033l-156.976 217.46v482.549h700.009v-161.521z" />
    <glyph glyph-name="dzecyrillic" unicode="&#x455;" 
d="M750.009 430.756v-430.766h-700.009v161.521h538.486v107.722h-538.486v430.766h700.009v-161.521h-538.486v-107.722h538.486z" />
    <glyph glyph-name="icyrillic" unicode="&#x456;" 
d="M750.009 538.477h-269.243v-376.965h269.243v-161.521h-700.009v161.521h269.243v376.965h-269.243v161.521h700.009v-161.521z" />
    <glyph glyph-name="yicyrillic" unicode="&#x457;" 
d="M341.567 772.842h-142.494v142.494h142.494v-142.494zM600.937 772.842h-142.494v142.494h142.494v-142.494zM749.995 538.854h-269.213v-376.965h269.213v-161.521h-699.979v161.521h269.243v376.965h-269.243v161.521h699.979v-161.521z" />
    <glyph glyph-name="jecyrillic" unicode="&#x458;" 
d="M750.009 700l-0.000976562 -482.548l-156.976 -217.46h-543.033v161.521h449.281l89.2061 123.588v253.377h-538.486v161.521h700.009z" />
    <glyph glyph-name="ljecyrillic" unicode="&#x459;" horiz-adv-x="1073" 
d="M634.899 430.831l387.955 0.000976562l0.0302734 -430.766h-549.717v538.486h-133.674l-83.5459 -538.486h-230.948v161.521h94.4746l83.5459 538.486h431.879v-269.243zM634.931 161.589h226.432v107.722h-226.432v-107.722z" />
    <glyph glyph-name="njecyrillic" unicode="&#x45a;" horiz-adv-x="1068" 
d="M629.552 430.831h387.953l0.0302734 -430.766h-549.476v269.243h-256.538v-269.243h-161.521v700.009h161.492v-269.243h256.538v269.243h161.521v-269.243zM629.581 161.588h226.432v107.722h-226.432v-107.722z" />
    <glyph glyph-name="tshecyrillic" unicode="&#x45b;" 
d="M750.009 538.553h-538.487v-107.722h538.486v-430.766h-161.521v269.243h-376.965v-269.243h-161.521v700.009h700.009v-161.521z" />
    <glyph glyph-name="kjecyrillic" unicode="&#x45c;" 
d="M750.009 700.074l0.000976562 -430.585h-194.729l194.488 -269.424h-194.248l-194.488 269.424h-149.51v-269.424h-161.521v700.009h161.521v-268.973h376.904v268.973h161.582zM560.971 915.336l-101.671 -215.263h-156.434l101.7 215.263h156.404z" />
    <glyph glyph-name="ushortcyrillic" unicode="&#x45e;" 
d="M588.472 700.074h161.522v-700.009h-699.979v161.521h538.457v107.722h-538.457v430.766h161.521v-269.243h376.935v269.243zM542.529 772.842h-285.02v142.494h285.02v-142.494z" />
    <glyph glyph-name="dzhecyrillic" unicode="&#x45f;" 
d="M588.486 700.074h161.521v-700.009h-269.243v-161.521h-161.521v161.521h-269.243v700.009h161.521v-538.486h376.965v538.486z" />
    <glyph glyph-name="Yuslittlecyrillic" unicode="&#x466;" 
d="M50 700.009h700.008v-700.009h-161.521v269.243h-107.722v-269.243h-161.521v269.243h-107.722v-269.243h-161.521v700.009zM211.521 430.766h376.965v107.722h-376.965v-107.722z" />
    <glyph glyph-name="Gheupturncyrillic" unicode="&#x490;" 
d="M588.472 861.566l161.521 -0.000976562v-323.014h-538.457v-538.486h-161.521v700.009h538.457v161.492z" />
    <glyph glyph-name="gheupturncyrillic" unicode="&#x491;" 
d="M588.486 861.566l161.521 -0.000976562v-323.014h-538.486v-538.486h-161.521v700.009h538.486v161.492z" />
    <glyph glyph-name="Shhacyrillic" unicode="&#x4ba;" 
d="M211.537 430.831h538.456v-430.766h-161.521v269.243h-376.935v-269.243h-161.521v700.009h161.521v-269.243z" />
    <glyph glyph-name="shhacyrillic" unicode="&#x4bb;" 
d="M211.537 430.831h538.456v-430.766h-161.521v269.243h-376.935v-269.243h-161.521v700.009h161.521v-269.243z" />
    <glyph glyph-name="uni1e9e" unicode="&#x1e9e;" 
d="M50 700.073l700.009 -0.000976562v-269.273l-66.8369 -80.7461l66.8369 -80.5654v-431.066h-430.766v305.673h161.492v-144.09h107.631v232.183l-33.418 37.3018h-343.426l-0.391602 -269.424h-161.131v700.009zM588.366 470.269l0.000976562 68.252h-376.845v-107.391
h342.733z" />
    <glyph glyph-name="emdash" unicode="&#x2014;" 
d="M750.009 269.084h-700.009v161.521h700.009v-161.521z" />
    <glyph glyph-name="quoteleft" unicode="&#x2018;" horiz-adv-x="262" 
d="M130.776 551.534l-80.7754 161.521v71.2021h161.521v-232.724h-80.7461z" />
    <glyph glyph-name="quoteright" unicode="&#x2019;" horiz-adv-x="262" 
d="M50 784.258h161.522v-71.2021l-80.7461 -161.521h-80.7764v232.724z" />
    <glyph glyph-name="quoteleftreversed" unicode="&#x201b;" horiz-adv-x="262" 
d="M130.776 551.534l-80.7754 161.521v71.2021h161.521v-232.724h-80.7461z" />
    <glyph glyph-name="quotedblleft" unicode="&#x201c;" horiz-adv-x="484" 
d="M50 551.534l0.000976562 232.724h161.521v-71.2021l-80.7764 -161.521h-80.7461zM272.459 784.258h161.522v-71.2021l-80.7764 -161.521h-80.7461v232.724z" />
    <glyph glyph-name="quotedblright" unicode="&#x201d;" horiz-adv-x="484" 
d="M50 551.534l0.000976562 232.724h161.521v-71.2021l-80.7764 -161.521h-80.7461zM272.459 784.258h161.522v-71.2021l-80.7764 -161.521h-80.7461v232.724z" />
    <glyph glyph-name="quotedblbase" unicode="&#x201e;" horiz-adv-x="484" 
d="M272.458 784.258h161.522v-232.724h-80.7764l-80.7461 161.521v71.2021zM50.001 713.056l0.000976562 71.2021h161.521v-232.724h-80.7764z" />
    <glyph glyph-name="uni201f" unicode="&#x201f;" horiz-adv-x="484" 
d="M272.458 784.258h161.522v-232.724h-80.7764l-80.7461 161.521v71.2021zM50.001 713.056l0.000976562 71.2021h161.521v-232.724h-80.7764z" />
    <glyph glyph-name="Euro" unicode="&#x20ac;" horiz-adv-x="891" 
d="M841.066 538.478h-468.188l-40.1621 -36.4893h387.201v-131.415h-387.201v-41.1553h387.201v-131.415h-387.201l37.1816 -36.4893h471.168v-161.521h-508.35l-161.521 161.521v36.4893h-121.179v131.415h121.179v41.1553h-121.179v131.415h121.179v36.4893
l161.521 161.521h508.35v-161.521z" />
    <glyph glyph-name="uni20b8" unicode="&#x20b8;" 
d="M750.009 700h-700.009v161.521h700.009v-161.521zM50 376.956l-0.000976562 161.521h700.009v-161.521h-269.243v-376.965h-161.521v376.965h-269.243z" />
    <glyph glyph-name="uni20bd" unicode="&#x20bd;" horiz-adv-x="891" 
d="M200.864 700l639.795 0.000976562v-430.585h-464.786v-0.180664h-13.4873v-269.243h-161.521v269.243h-150.864v161.521h150.864v269.243zM679.077 431.059v107.391h-316.691v-107.391h316.691z" />
    <glyph glyph-name="numero" unicode="&#x2116;" horiz-adv-x="841" 
d="M790.743 699.999v-161.522h-161.161v-538.486h-194.64l-223.421 406.349v-406.349h-161.521v700.009h194.338l223.723 -406.891v406.891h322.683z" />
    <glyph glyph-name="iucyrillic.alt1" unicode="&#xf000;" 
d="M318.852 700.009h431.156v-700.009h-431.156v161.521h0.391602v107.722h-107.722v-269.243h-161.521v700.009h161.521v-269.243h107.722v107.722h-0.391602v161.521zM588.486 161.522v376.965h-107.722v-376.965h107.722z" />
    <glyph glyph-name="tecyrillic.alt1" unicode="&#xf001;" 
d="M750.009 700.062l-0.000976562 -700.009h-161.521v538.486h-107.42v-538.486h-161.552v538.486h-107.902v-538.486h-161.612v700.009h700.009z" />
    <glyph glyph-name="zhecyrillic.alt1" unicode="&#xf002;" 
d="M749.979 700.062l0.000976562 -430.555h-194.488l194.488 -269.454h-194.248l-155.741 215.774l-155.741 -215.774h-194.248l194.488 269.454h-194.488v430.555h161.521v-268.942h107.722v268.942h161.521v-268.942h107.661v268.942h161.552z" />
    <glyph glyph-name="y.alt1" unicode="&#xf004;" 
d="M588.457 700h161.521v-321.026l-156.976 -217.46h-94.9258v-161.521h-161.521v161.521h-129.579l-156.976 217.46v321.026h161.521v-253.377l89.2061 -123.588h198.523l89.2061 123.588v253.377z" />
    <glyph glyph-name="o.alt1" unicode="&#xf007;" horiz-adv-x="841" 
d="M420.522 720.609c204.334 0 370.553 -166.219 370.553 -370.553s-166.219 -370.553 -370.553 -370.553c-204.304 0 -370.522 166.219 -370.522 370.553s166.219 370.553 370.522 370.553zM420.522 140.154c115.76 0 209.933 94.1738 209.933 209.934
s-94.2031 209.934 -209.933 209.934s-209.903 -94.1738 -209.903 -209.934s94.1738 -209.934 209.903 -209.934z" />
    <glyph glyph-name="q.alt1" unicode="&#xf009;" horiz-adv-x="841" 
d="M791.074 350.058c0 -161.643 -104.199 -299.079 -248.861 -349.598l93.5713 -161.612h-182.235l-83.6963 144.542c-180.369 24.8379 -319.854 179.586 -319.854 366.668c0 204.334 166.219 370.553 370.522 370.553c204.334 0 370.553 -166.219 370.553 -370.553z
M420.522 140.154c115.76 0 209.933 94.1738 209.933 209.934s-94.2031 209.934 -209.933 209.934s-209.903 -94.1738 -209.903 -209.934s94.1738 -209.934 209.903 -209.934z" />
    <glyph glyph-name="q.alt2" unicode="&#xf00a;" horiz-adv-x="841" 
d="M791.074 350.058c0 -176.545 -124.221 -324.429 -289.777 -361.399v-149.78h-161.521v149.78c-165.557 36.9707 -289.776 184.824 -289.776 361.399c0 204.334 166.219 370.553 370.522 370.553c204.334 0 370.553 -166.219 370.553 -370.553zM420.521 140.154
c115.76 0 209.933 94.1738 209.933 209.934s-94.2031 209.934 -209.933 209.934s-209.903 -94.1738 -209.903 -209.934s94.1738 -209.934 209.903 -209.934z" />
    <glyph glyph-name="ocyrillic.alt1" unicode="&#xf00c;" horiz-adv-x="841" 
d="M420.522 720.609c204.334 0 370.553 -166.219 370.553 -370.553s-166.219 -370.553 -370.553 -370.553c-204.304 0 -370.522 166.219 -370.522 370.553s166.219 370.553 370.522 370.553zM420.522 140.154c115.76 0 209.933 94.1738 209.933 209.934
s-94.2031 209.934 -209.933 209.934s-209.903 -94.1738 -209.903 -209.934s94.1738 -209.934 209.903 -209.934z" />
    <glyph glyph-name="hardsigncyrillic.alt1" unicode="&#xf00d;" horiz-adv-x="751" 
d="M324.429 430.816h375.58v-430.766h-537.102v538.457h-162.907v161.552h324.429v-269.243zM538.487 161.573v107.722h-214.058v-107.722h214.058z" />
    <glyph glyph-name="zero.alt1" unicode="&#xf00e;" horiz-adv-x="841" 
d="M420.522 720.609c204.334 0 370.553 -166.219 370.553 -370.553s-166.219 -370.553 -370.553 -370.553c-204.304 0 -370.522 166.219 -370.522 370.553s166.219 370.553 370.522 370.553zM420.522 140.154c115.76 0 209.933 94.1738 209.933 209.934
s-94.2031 209.934 -209.933 209.934s-209.903 -94.1738 -209.903 -209.934s94.1738 -209.934 209.903 -209.934z" />
    </font>
</defs>
</svg>
